<svg width="19" height="19" viewBox="0 0 19 19" fill="none" xmlns="http://www.w3.org/2000/svg">
<g id="Group 1000001773">
<path id="Vector" d="M17.0002 8.999H19.0002C19.0002 3.869 15.1272 0 9.99023 0V2C14.0522 2 17.0002 4.943 17.0002 8.999Z" fill="#008342"/>
<path id="Vector_2" d="M10.0003 6.00024C12.1033 6.00024 13.0003 6.89724 13.0003 9.00024H15.0003C15.0003 5.77524 13.2253 4.00024 10.0003 4.00024V6.00024ZM13.4223 11.4432C13.2301 11.2686 12.9776 11.1754 12.7181 11.1835C12.4585 11.1915 12.2123 11.3001 12.0313 11.4862L9.63828 13.9472C9.06228 13.8372 7.90428 13.4762 6.71228 12.2872C5.52028 11.0942 5.15928 9.93324 5.05228 9.36124L7.51128 6.96724C7.69769 6.78637 7.80642 6.54006 7.81444 6.28045C7.82247 6.02083 7.72917 5.76828 7.55428 5.57624L3.85928 1.51324C3.68432 1.3206 3.44116 1.20374 3.18143 1.1875C2.92171 1.17125 2.66588 1.2569 2.46828 1.42624L0.298282 3.28724C0.125393 3.46075 0.0222015 3.69169 0.00828196 3.93624C-0.00671804 4.18624 -0.292718 10.1082 4.29928 14.7022C8.30528 18.7072 13.3233 19.0002 14.7053 19.0002C14.9073 19.0002 15.0313 18.9942 15.0643 18.9922C15.3088 18.9786 15.5396 18.8749 15.7123 18.7012L17.5723 16.5302C17.7417 16.3328 17.8276 16.077 17.8115 15.8173C17.7954 15.5576 17.6788 15.3143 17.4863 15.1392L13.4223 11.4432Z" fill="#008342"/>
</g>
</svg>
